<svg width="61" height="57" viewBox="0 0 61 57" fill="none" xmlns="http://www.w3.org/2000/svg">
<path fill-rule="evenodd" clip-rule="evenodd" d="M0 20C0 8.95433 8.9543 0 20 0L36.3914 0C45.3541 0 52.9399 5.89558 55.4822 14.0202C58.1581 15.3142 60.0039 18.0549 60.0039 21.2266L60.0039 35.1644C60.0039 38.3361 58.1582 41.0767 55.4823 42.3707C52.9402 50.4956 45.3543 56.3914 36.3914 56.3914L20 56.3914C8.95433 56.3914 0 47.4371 0 36.3914L0 20ZM50.8911 13.2265L42.2282 13.2265C33.9611 13.2265 27.2593 19.9284 27.2593 28.1955C27.2593 36.4627 33.9611 43.1645 42.2282 43.1645H50.8913C48.3408 48.6154 42.8071 52.3914 36.3914 52.3914L20 52.3914C11.1635 52.3914 4 45.228 4 36.3914L4 20C4 11.1635 11.1634 4 20 4L36.3914 4C42.8069 4 48.3405 7.77587 50.8911 13.2265ZM23.5176 28.1957C23.5176 32.8459 19.7478 36.6157 15.0975 36.6157C10.4473 36.6157 6.67748 32.8459 6.67748 28.1957C6.67748 23.5454 10.4473 19.7756 15.0975 19.7756C19.7478 19.7756 23.5176 23.5454 23.5176 28.1957ZM49.7136 28.1957C49.7136 32.8459 45.9438 36.6157 41.2936 36.6157C36.6433 36.6157 32.8735 32.8459 32.8735 28.1957C32.8735 23.5454 36.6433 19.7756 41.2936 19.7756C45.9438 19.7756 49.7136 23.5454 49.7136 28.1957Z" fill="url(#paint0_linear_169_28)"/>
<defs>
<linearGradient id="paint0_linear_169_28" x1="1" y1="1" x2="59.4202" y2="55.6202" gradientUnits="userSpaceOnUse">
<stop offset="0.0965847" stop-color="#44DCF1"/>
<stop offset="0.517019" stop-color="#0085FF"/>
<stop offset="0.927199" stop-color="#4844F1"/>
</linearGradient>
</defs>
</svg>
