<svg width="60" height="55" viewBox="0 0 60 55" fill="none" xmlns="http://www.w3.org/2000/svg">
<path fill-rule="evenodd" clip-rule="evenodd" d="M0 19C0 8.50661 8.50659 0 19 0L35.3914 0C43.6211 0 50.6288 5.23232 53.2693 12.5518C56.5843 13.5288 59.0039 16.5951 59.0039 20.2266L59.0039 34.1644C59.0039 37.7958 56.5843 40.8621 53.2694 41.8392C50.6291 49.1589 43.6213 54.3914 35.3914 54.3914L19 54.3914C8.50661 54.3914 0 45.8848 0 35.3914L0 19ZM50.9884 12.2265L41.2282 12.2265C32.9611 12.2265 26.2593 18.9284 26.2593 27.1955C26.2593 35.4627 32.9611 42.1645 41.2282 42.1645H50.9886C48.3715 48.1829 42.3729 52.3914 35.3914 52.3914L19 52.3914C9.61118 52.3914 2 44.7803 2 35.3914L2 19C2 9.61118 9.61116 2 19 2L35.3914 2C42.3727 2 48.3712 6.20829 50.9884 12.2265ZM22.5176 27.1957C22.5176 31.8459 18.7478 35.6157 14.0975 35.6157C9.44726 35.6157 5.67748 31.8459 5.67748 27.1957C5.67748 22.5454 9.44726 18.7756 14.0975 18.7756C18.7478 18.7756 22.5176 22.5454 22.5176 27.1957ZM48.7136 27.1957C48.7136 31.8459 44.9438 35.6157 40.2936 35.6157C35.6433 35.6157 31.8735 31.8459 31.8735 27.1957C31.8735 22.5454 35.6433 18.7756 40.2936 18.7756C44.9438 18.7756 48.7136 22.5454 48.7136 27.1957Z" fill="url(#paint0_linear_226_49)"/>
<defs>
<linearGradient id="paint0_linear_226_49" x1="0" y1="0" x2="58.4202" y2="54.6202" gradientUnits="userSpaceOnUse">
<stop offset="0.0965847" stop-color="#44DCF1"/>
<stop offset="0.517019" stop-color="#0085FF"/>
<stop offset="0.927199" stop-color="#4844F1"/>
</linearGradient>
</defs>
</svg>
