<svg width="34" height="34" viewBox="0 0 34 34" fill="none" xmlns="http://www.w3.org/2000/svg">
<path d="M30.3021 16.9828C30.3114 16.2661 29.9232 15.6074 29.2927 15.2617L14.6008 7.18953C13.9428 6.81761 13.167 6.8633 12.547 7.28673C11.9155 7.71728 11.5923 8.74222 11.7688 9.48249L13.1404 15.2288C13.2812 15.818 13.8085 16.2329 14.4152 16.2303L22.5912 16.2049C23.0099 16.1965 23.3495 16.5361 23.3411 16.9548C23.3398 17.3663 23.0052 17.7009 22.5866 17.7093L14.4028 17.7283C13.7961 17.7294 13.2661 18.1462 13.1217 18.7363L11.7016 24.5054C11.5292 25.1872 11.7258 25.8678 12.2068 26.3488C12.2634 26.4054 12.3271 26.4691 12.3908 26.5185C13.0137 26.9991 13.8296 27.0605 14.5261 26.6893L29.2678 18.6962C29.9004 18.3607 30.2927 17.6996 30.3021 16.9828" fill="url(#paint0_linear_172_47)"/>
<defs>
<linearGradient id="paint0_linear_172_47" x1="24.0418" y1="9.8995" x2="9.89964" y2="24.0416" gradientUnits="userSpaceOnUse">
<stop stop-color="#44DCF1"/>
<stop offset="1" stop-color="#0085FF"/>
</linearGradient>
</defs>
</svg>
